# Blender 3.3.0
# www.blender.org
mtllib stage.mtl
o Stage
v 202.480652 -399.105957 197.519348
v 202.480652 0.894046 197.519348
v 202.480652 -399.105957 1210.611328
v 202.480652 0.894046 1210.611328
v -1199.725464 -399.105957 -202.480652
v -1199.725464 0.894046 -202.480652
v -197.519348 -399.105957 -202.480652
v -197.519348 0.894046 -202.480652
v -1199.725464 -399.105957 197.519348
v -1199.725464 0.894046 197.519348
v -197.519348 -399.105957 197.519348
v -197.519348 0.894046 197.519348
v -197.519348 -399.105957 1210.611328
v -197.519348 0.894046 1210.611328
v 202.480652 -399.105957 -203.026917
v 202.480652 0.894046 -203.026917
v 202.480652 0.894046 -202.480652
v 202.480652 0.894046 197.519348
v 202.480652 0.894046 1210.611328
v -1199.725464 0.894046 -202.480652
v -197.519348 0.894046 -202.480652
v -1199.725464 0.894046 197.519348
v -197.519348 0.894046 197.519348
v -197.519348 0.894046 1210.611328
vn -1.0000 -0.0000 -0.0000
vn -0.0000 -0.0000 1.0000
vn 1.0000 -0.0000 -0.0000
vn -0.0000 -0.0000 -1.0000
vn 0.0014 -0.0000 1.0000
vn -0.0000 -1.0000 -0.0000
vt 0.500120 0.668721
vt 0.500120 0.331279
vt -0.010230 0.668721
vt -0.010230 0.331279
vt 1.003748 0.668721
vt 1.003748 0.331279
vt 0.498882 0.668721
vt 0.498882 0.331279
vt 1.003748 0.668721
vt 1.003748 0.331279
vt 0.500120 0.668721
vt 0.498882 0.668721
vt 0.500120 0.331279
vt 0.498882 0.331279
vt -0.010230 0.668721
vt -0.010230 0.331279
vt 0.701898 0.668721
vt 0.297380 0.668721
vt 0.701898 0.331279
vt 0.297380 0.331279
vt 0.005993 0.994421
vt 0.005993 0.713189
vt 0.005993 0.000906
vt 0.991855 0.994421
vt 0.287225 0.994421
vt 0.991855 0.713189
vt 0.287225 0.713189
vt 0.287225 0.000906
s 0
usemtl Walls
f 2/2/1 1/1/1 3/3/1 4/4/1
f 6/6/2 5/5/2 7/7/2 8/8/2
f 14/16/3 13/15/3 11/11/3 12/13/3
f 12/14/4 11/12/4 9/9/4 10/10/4
f 1/1/1 2/2/1 16/19/1 15/17/1
f 8/8/5 7/7/5 15/18/5 16/20/5
usemtl Floor
f 21/25/6 17/21/6 18/22/6 23/27/6
f 22/26/6 20/24/6 21/25/6 23/27/6
f 19/23/6 24/28/6 23/27/6 18/22/6
